<?xml version="1.0" encoding="utf-8"?>
<!-- Generator: Adobe Illustrator 25.3.1, SVG Export Plug-In . SVG Version: 6.00 Build 0)  -->
<svg version="1.1" id="Layer_1" xmlns="http://www.w3.org/2000/svg" xmlns:xlink="http://www.w3.org/1999/xlink" x="0px" y="0px"
	 viewBox="0 0 275 180" style="enable-background:new 0 0 275 180;" xml:space="preserve">
<style type="text/css">
	.st0{fill:#232C65;}
	.st1{fill:#EE3E42;}
	.st2{fill-rule:evenodd;clip-rule:evenodd;fill:#FFFFFF;}
	.st3{fill:#FFFFFF;}
	.st4{fill:none;}
</style>
<g>
	<rect x="69.8" y="108.3" class="st0" width="177.9" height="42.5"/>
	<g>
		<rect x="27.3" y="108.3" class="st1" width="42.5" height="42.5"/>
		<g>
			<path class="st2" d="M41,141c-7.6,0-9.6-4.8-8.3-11.6c1.2-6.4,5.8-11.4,12.9-11.4c2.7,0,4.6,0.5,6,1.4l-2.6,3.9
				c-0.6-0.4-1.6-0.7-3.5-0.7c-3.3,0-5.5,2-6.4,6.9c-0.9,4.8-0.1,7.1,2.2,7.1c0.5,0,0.9-0.1,1.1-0.2l1-5.3h-1.9l0.7-3.8h8l-2.3,12.3
				C46.2,140.5,44.2,141,41,141z"/>
			<path class="st2" d="M50.1,141l0.8-4.4c1.8-0.2,3.3-1.4,3.7-3.8l2.7-14.4h6.4l-2.6,13.7C60.2,138,55.7,140.9,50.1,141z"/>
			<g>
				<path class="st3" d="M62.2,137.4c-1,0-1.8,0.8-1.8,1.8s0.8,1.8,1.8,1.8s1.8-0.8,1.8-1.8S63.2,137.4,62.2,137.4z M62.2,140.7
					c-0.8,0-1.5-0.7-1.5-1.5s0.7-1.5,1.5-1.5s1.5,0.7,1.5,1.5S63,140.7,62.2,140.7z"/>
				<path class="st3" d="M62.8,138.3c-0.1,0-0.2,0-0.3,0h-0.8l-0.4,1.8h0.4l0.2-0.8h0.2c0.1,0,0.2,0,0.2,0c0.1,0,0.1,0.1,0.2,0.2
					c0.1,0.2,0.2,0.4,0.2,0.5h0.4c-0.1-0.3-0.2-0.5-0.3-0.6c0-0.1-0.1-0.1-0.1-0.2c0.2,0,0.3-0.1,0.4-0.2c0.1-0.1,0.1-0.2,0.1-0.4
					c0-0.1,0-0.2-0.1-0.3C63,138.4,62.9,138.3,62.8,138.3z M62.7,138.9c0,0.1-0.1,0.1-0.2,0.1c-0.1,0-0.2,0-0.4,0h-0.2l0.1-0.5h0.4
					c0.1,0,0.2,0,0.2,0c0.1,0,0.1,0.1,0.1,0.1C62.7,138.8,62.7,138.8,62.7,138.9z"/>
			</g>
		</g>
	</g>
	<g>
		<path class="st3" d="M205.8,130.8l-0.1-1.5l-0.2-16.9h-1.8l-3.8,7.8l-4.4,8.9l-0.6,1.1l-0.1,0.2c-0.5,1.1-0.9,1.2-0.9,1.2
			l-0.6,0.1l-0.5,2h3.9l0.5-2h-0.4c-0.4,0-0.5-0.1-0.5-0.1l0,0c0,0,0,0,0-0.1c0-0.2,0.4-0.9,0.7-1.7l0.9-1.9h3.7v1.4
			c0,1.2,0,1.8,0,2c-0.1,0.2-0.4,0.3-1,0.3h-0.3l-0.5,2h6.4l0.5-2h-0.4C206.1,131.6,205.8,131.6,205.8,130.8z M198.9,125.9l2.6-5.3
			l0.1,5.3H198.9z"/>
		<path class="st3" d="M190.7,129.8c-0.2,0.8-0.4,1.4-0.5,1.6c0,0.1-0.1,0.2-0.5,0.2h-1.2h-0.8c-1.1,0-1.2-0.2-1.2-0.2
			c0-0.4,0.1-1.2,0.4-2.2l1.5-5.9h1.5h0.8c0.1,0,0.1,0,0.1,0s0.1,0.1,0,0.5l-0.2,0.9h1.7l1.2-4.8h-1.7l-0.2,0.8
			c-0.1,0.4-0.3,0.7-0.5,0.7h-0.8H189l1.8-7.1h2.7c0.3,0,0.5,0,0.6,0.1c0.1,0,0.2,0.1,0.2,0.5l-0.2,0.9l-0.2,0.8h1.8l1-4.3h-10.9
			l-0.5,2h0.4c0.4,0,0.7,0.1,0.8,0.2s0.1,0.3,0.1,0.5l-1.5,6l-2.4,9.6c-0.2,0.6-0.6,0.9-1.4,0.9H181l-0.5,2h11.2l1.1-4.5h-1.9
			L190.7,129.8z"/>
		<path class="st3" d="M158.9,131.6h-0.3l-0.5,2h6.4l0.5-2h-0.4c-0.2,0-0.5,0-0.5-0.8l-0.3-18.4H162l-7.3,14.7l-1.6,3.3
			c-0.6,1.1-0.9,1.2-1,1.2l-0.6,0.1l-0.5,2h3.9l0.5-2H155c-0.4,0-0.5-0.1-0.5-0.1l0,0l1.7-3.7h3.7v3.5
			C159.8,131.5,159.3,131.6,158.9,131.6z M157.3,125.9l2.6-5.3l0.1,5.3H157.3z"/>
		<path class="st3" d="M225.6,115.3c0.2-0.6,0.6-0.9,1.4-0.9h0.3l0.5-2h-5.4l-0.5,2h0.4c0.4,0,0.7,0.1,0.8,0.2s0.1,0.3,0,0.5
			l-2.5,10.4l-4.2-12.9l-0.1-0.2h-3.7l-0.5,2h0.4c0.6,0,0.9,0.1,0.9,0.2c0,0.2-0.1,0.9-0.4,2.2l-3,12.3c-0.3,1.3-0.5,1.9-0.7,2.2
			c-0.1,0.2-0.5,0.3-1.2,0.3h-0.3l-0.5,2h5.4l0.5-2h-0.4c-0.4,0-0.7-0.1-0.8-0.2c-0.1-0.1-0.1-0.3,0-0.5l2.5-10.3l4.3,13h2.2l4-15.8
			L225.6,115.3z"/>
		<path class="st3" d="M181.6,115.8c0.3-0.3,0.8-0.4,1.4-0.4h0.5l0.7-3h-9.7l-0.7,3h0.8c0.7,0,0.9,0.2,1,0.2c0.1,0.1,0.1,0.3,0,0.5
			l-1.3,5.1l-4.7,18.4c-0.5,2.1-1,3.4-1.4,4c-0.4,0.5-0.9,0.8-1.6,0.8c-0.1,0-0.1,0-0.2,0c0,0,0,0,0-0.1v-0.1c0-0.4,0.2-1,0.3-1.8
			l0.2-0.8h-2.6l-1.1,3l-0.7,1.9l0.6,0.2c0.1,0,0.2,0.1,0.3,0.1h0.1h0.1c0.7,0.2,1.4,0.3,2.2,0.4h0.4c2.6,0,4.7-0.7,6-2.1
			c1.4-1.3,2.5-3.6,3.3-6.9l4.3-16.7l1.4-5.1C181.3,116.2,181.5,116,181.6,115.8z"/>
		<path class="st3" d="M128.9,126.5c0.4-1,0.7-2.1,1.1-3.5c0.8-3.4,0.9-6.1,0.4-8c-0.3-1.2-0.9-2-1.6-2.5c-0.4-0.3-1-0.5-1.7-0.6
			h-0.5c-1,0-1.9,0.3-2.8,0.8c-0.8,0.5-1.6,1.3-2.2,2.2c-1.5,1.9-2.7,4.6-3.5,8c-0.8,3.3-1,6-0.5,8c0.6,2.1,1.8,3.2,3.7,3.2
			c1,0,2-0.3,2.9-0.9c0.8-0.5,1.6-1.2,2.3-2.1c0.2-0.3,0.5-0.6,0.7-0.9l0.3-0.4C128,128.6,128.5,127.6,128.9,126.5L128.9,126.5z
			 M126.7,118.6L126.7,118.6c-0.2,1.2-0.5,2.5-0.9,4c-0.7,2.9-1.4,5.2-2.2,6.9l0,0c-0.9,2.1-1.6,2.4-1.9,2.4c-0.2,0-0.3-0.1-0.4-0.2
			c-0.4-0.5-0.8-2.3,0.9-8.8c0.7-3,1.4-5.2,2.1-6.7l0,0c0.7-1.5,1.4-2.4,2-2.4c0.2,0,0.4,0.2,0.5,0.3l0,0
			C127.1,115,127.1,116.4,126.7,118.6z"/>
		<path class="st3" d="M148.9,131.4c-0.1-0.1-0.1-0.3,0-0.5l3.9-15.6c0.1-0.5,0.5-0.8,1.1-0.8h0.1c0.1,0,0.2,0,0.3,0h0.3l0.5-2h-7
			l-0.5,2h0.4c0.4,0,0.7,0.1,0.8,0.2s0.1,0.3,0,0.5l-3.8,15.6c-0.1,0.4-0.2,0.5-0.5,0.7c-0.2,0.1-0.4,0.2-0.6,0.2h-0.2l-0.4,2h6.6
			l0.5-2H150C149.2,131.6,149,131.5,148.9,131.4z"/>
		<path class="st3" d="M143.6,119.9c0.3-0.6,0.6-1.3,0.8-2.2c0.6-2.2,0.3-3.8-0.8-4.7l-0.1,0c-0.6-0.4-1.3-0.6-2.1-0.7
			c-0.1,0-0.2,0-0.2,0c-0.1,0-0.2,0-0.3,0c-0.4,0-0.8,0-1.2,0s-0.8,0-1.2,0h-5.1l-0.5,2h0.4c0.4,0,0.7,0.1,0.8,0.2s0.1,0.3,0.1,0.5
			l-3.9,15.7c0,0.2-0.1,0.3-0.2,0.4l0,0c-0.2,0.3-0.6,0.4-1.2,0.4h-0.2l-0.5,2h6.8l0.5-2h-0.4c-0.5-0.1-0.7-0.1-0.8-0.1
			c0-0.1,0-0.2,0.1-0.6l1.6-6.7h0.5l0.9,9.4h4.3l0.4-1.9l-0.3-0.1c-0.1,0-0.2-0.1-0.3-0.2c-0.3-0.3-0.4-0.9-0.6-1.7l-0.1-0.4l-0.6-6
			c0.4-0.2,0.8-0.5,1.2-0.8C142.4,121.9,143.1,121,143.6,119.9z M140.4,117.8c-0.5,1.9-1.2,3.2-2.1,3.9c-0.5,0.4-1.1,0.6-1.8,0.6
			h-0.1l2-7.9h0.6c0.6,0,1,0.2,1.3,0.5C140.7,115.4,140.7,116.4,140.4,117.8z"/>
		<path class="st3" d="M113.7,130.4c-0.2,0.6-0.5,0.9-1,0.9H112h-1.4c-1.1,0-1.2-0.2-1.2-0.2c0-0.4,0.2-1.5,0.3-1.9l3.5-14
			c0.2-0.6,0.6-0.9,1.4-0.9h0.3l0.5-2h-7l-0.5,2h0.4c0.4,0,0.7,0.1,0.8,0.2c0.1,0.1,0.1,0.3,0,0.5l-3.9,15.6c0,0.2-0.1,0.4-0.3,0.5
			c-0.1,0.1-0.2,0.2-0.3,0.2c-0.2,0.1-0.5,0.1-0.8,0.1h-0.3l-0.5,2h11.7l1.2-4.8h-2L113.7,130.4z"/>
		<path class="st3" d="M102.2,119.7h2.5l1.6-6.3l-0.3-0.1c-0.5-0.2-1.1-0.4-1.7-0.7l-0.4-0.1c-1.4-0.4-2.8-0.6-4.3-0.6
			c-7.4,0-12.5,5.7-15.3,16.9c-1.3,5.1-1.4,9.3-0.2,12.4c1.2,3.1,3.6,4.7,7,4.7c1.8,0,4.3-0.5,7.4-1.5l0.2-0.1l2-8.1l0,0l1.5-6.2h-8
			l-0.7,2.7h0.4c0.7,0,1.2,0.1,1.4,0.3c0.2,0.2,0.2,0.4,0.2,0.9l-2.1,8.7c-0.5,0.2-0.9,0.3-1.3,0.3c-0.9,0-1.6-0.3-2-0.9
			c-1.4-1.8-1.3-6.2,0.5-13.1c1.3-5.2,2.6-8.9,4-11c1.3-2.1,3-3.2,4.8-3.2c1.4,0,2.3,0.3,2.9,1c0.5,0.7,0.6,1.7,0.3,3.1L102.2,119.7
			z"/>
		<path class="st3" d="M234.5,117.2h1.9l1-4.2l-0.3-0.1c-0.2-0.1-0.3-0.1-0.5-0.2c-1.2-0.5-2.2-0.7-3.2-0.7c-1.5,0-2.9,0.6-4,1.7
			s-1.9,2.5-2.4,4.3c-0.7,2.6,0,4.9,1.9,6.8l0.8,0.7c1,1,1.3,2.1,0.9,3.4c-0.5,2.2-1.5,3.3-2.9,3.3c-0.5,0-0.9-0.1-1.2-0.3
			c-0.1-0.1-0.2-0.2-0.3-0.3c-0.4-0.5-0.4-1.4-0.1-2.6l0.1-0.4h-1.7l-1.2,4.7l0.3,0.1c0.8,0.3,1.7,0.5,2.4,0.6c0.1,0,0.3,0,0.4,0
			c0.4,0.1,0.8,0.1,1.2,0.1c1.7,0,3.2-0.6,4.5-1.8c1.3-1.1,2.2-2.7,2.7-4.7c0.6-2.6-0.1-4.9-2-6.9l-0.7-0.8c-0.9-1-1.2-2-1-3.1
			c0.5-1.9,1.4-2.9,2.7-2.9c0.5,0,0.8,0.1,1,0.4c0.3,0.4,0.3,1.3,0,2.5L234.5,117.2z"/>
	</g>
</g>
<rect x="7.5" y="-0.4" class="st4" width="260" height="180"/>
</svg>
