<?xml version="1.0" encoding="utf-8"?>
<!-- Generator: Adobe Illustrator 25.3.1, SVG Export Plug-In . SVG Version: 6.00 Build 0)  -->
<svg version="1.1" id="Layer_1" xmlns="http://www.w3.org/2000/svg" xmlns:xlink="http://www.w3.org/1999/xlink" x="0px" y="0px"
	 viewBox="0 0 32 32" style="enable-background:new 0 0 32 32;" xml:space="preserve">
<style type="text/css">
	.st0{fill:#FFFFFF;}
</style>
<g id="XMLID_9_">
	<path id="XMLID_10_" class="st0" d="M6.9,3.7h18.3c1.7,0,3.2,1.4,3.2,3.2v18.3c0,1.7-1.4,3.2-3.2,3.2H6.9c-1.7,0-3.2-1.4-3.2-3.2
		V6.9C3.7,5.1,5.1,3.7,6.9,3.7z M21.6,6.4c-0.6,0-1.1,0.5-1.1,1.1v2.6c0,0.6,0.5,1.1,1.1,1.1h2.8c0.6,0,1.1-0.5,1.1-1.1V7.6
		c0-0.6-0.5-1.1-1.1-1.1H21.6z M25.5,14.1h-2.2c0.2,0.7,0.3,1.4,0.3,2.1c0,4.1-3.4,7.4-7.6,7.4c-4.2,0-7.6-3.3-7.6-7.4
		c0-0.7,0.1-1.4,0.3-2.1H6.4v10.4c0,0.5,0.4,1,1,1h17.1c0.5,0,1-0.4,1-1V14.1z M16,11.2c-2.7,0-4.9,2.1-4.9,4.8
		c0,2.6,2.2,4.8,4.9,4.8c2.7,0,4.9-2.1,4.9-4.8C21,13.3,18.7,11.2,16,11.2z"/>
</g>
</svg>
