<?xml version="1.0" encoding="utf-8"?>
<!-- Generator: Adobe Illustrator 25.3.1, SVG Export Plug-In . SVG Version: 6.00 Build 0)  -->
<svg version="1.1" id="Layer_1" xmlns="http://www.w3.org/2000/svg" xmlns:xlink="http://www.w3.org/1999/xlink" x="0px" y="0px"
	 viewBox="0 0 218 66.2" style="enable-background:new 0 0 218 66.2;" xml:space="preserve">
<style type="text/css">
	.st0{fill:#0C3E64;}
	.st1{fill:#4CAC33;}
	.st2{fill:#FFD216;}
	.st3{fill:#F0841E;}
	.st4{fill:#E73B3B;}
	.st5{fill:#03B6E1;}
</style>
<g>
	<polygon class="st0" points="192.1,21.1 192.1,7 168.8,7 168.8,14.1 145.8,14.1 145.8,0 113.9,0 113.9,21.1 95,21.1 95,7 77.3,7 
		77.3,14 53.5,14 53.5,7 28.5,7 28.5,0 0,0 0,66.2 218,66.2 218,21.1 	"/>
	<path class="st1" d="M5.3,30.3c0.4,0,0.9,0,1.6-0.1c0.6,0,1.4,0,2.1-0.1c0.8,0,1.5,0,2.4-0.1c0.8,0,1.6,0,2.3,0
		c1.7,0,3.2,0.2,4.4,0.6c1.2,0.4,2.2,0.9,2.9,1.5c0.8,0.6,1.3,1.4,1.7,2.3c0.3,0.9,0.5,1.8,0.5,2.8c0,1.7-0.4,3-1.1,4.1
		c-0.8,1.1-1.8,1.9-3,2.5v0.1c1.4,0.4,2.6,1.1,3.6,2.2c1,1.1,1.5,2.6,1.5,4.6c0,1.5-0.3,2.8-0.8,3.9c-0.6,1.1-1.3,2-2.3,2.7
		c-1,0.7-2.1,1.2-3.4,1.6c-1.3,0.3-2.7,0.5-4.3,0.5c-0.7,0-1.4,0-2.1,0c-0.8,0-1.5,0-2.3,0c-0.7,0-1.4,0-2.1-0.1
		c-0.6,0-1.2-0.1-1.6-0.1V30.3z M13.6,34.9c-1.2,0-2.3,0-3.2,0.1v7.3h3.4c1.2,0,2.2-0.3,3-0.9c0.8-0.6,1.3-1.6,1.3-2.9
		c0-1.2-0.4-2.1-1.2-2.7C16,35.2,14.9,34.9,13.6,34.9z M10.4,46.8v7.7c0.4,0.1,0.8,0.1,1.4,0.1c0.6,0,1.2,0.1,1.9,0.1
		c1.7,0,3.1-0.4,4-1.1c0.9-0.7,1.3-1.7,1.3-3.1c0-1.2-0.4-2.2-1.3-2.8c-0.9-0.6-2.1-0.9-3.7-0.9H10.4z"/>
	<path class="st2" d="M29.9,49.9c0-1.4,0.2-2.7,0.7-3.9c0.5-1.2,1.2-2.2,2-3.1c0.9-0.9,1.9-1.6,3.2-2c1.2-0.5,2.6-0.7,4.2-0.7
		c1.5,0,2.9,0.2,4.2,0.7c1.2,0.5,2.3,1.2,3.2,2c0.9,0.9,1.6,1.9,2,3.1c0.5,1.2,0.7,2.5,0.7,3.9s-0.2,2.7-0.7,3.9
		c-0.5,1.2-1.2,2.2-2,3.1c-0.9,0.9-1.9,1.6-3.2,2c-1.2,0.5-2.6,0.7-4.2,0.7c-1.5,0-2.9-0.2-4.2-0.7c-1.2-0.5-2.3-1.2-3.2-2
		c-0.9-0.9-1.6-1.9-2-3.1C30.1,52.6,29.9,51.3,29.9,49.9z M35,49.9c0,1.6,0.5,2.9,1.4,3.9c1,1,2.2,1.5,3.6,1.5
		c1.5,0,2.7-0.5,3.7-1.5s1.4-2.3,1.4-3.9c0-0.8-0.1-1.5-0.4-2.2c-0.3-0.7-0.6-1.2-1.1-1.7c-0.5-0.5-1-0.8-1.6-1.1
		c-0.6-0.3-1.3-0.4-2-0.4c-0.7,0-1.4,0.1-2,0.4c-0.6,0.2-1.1,0.6-1.6,1.1s-0.8,1-1.1,1.7C35.1,48.3,35,49.1,35,49.9z"/>
	<path class="st3" d="M68.1,45.4h-4.9l-0.1,2c-0.2,2.5-0.6,4.6-1,6.2c-0.4,1.6-1,2.8-1.7,3.7c-0.7,0.9-1.5,1.5-2.4,1.8
		c-1,0.3-2,0.5-3.3,0.5L54.2,55c0.4,0.1,0.8,0,1.3-0.2c0.4-0.2,0.9-0.6,1.3-1.3c0.4-0.6,0.8-1.5,1.1-2.6c0.3-1.1,0.5-2.6,0.6-4.4
		l0.3-5.8h14.1v18.6h-4.8V45.4z"/>
	<path class="st4" d="M80.2,40.6h12.5V45H85v14.2h-4.8V40.6z"/>
	<path class="st5" d="M98.1,41.9c0.8-0.5,1.8-0.9,3-1.2c1.2-0.4,2.4-0.5,3.6-0.5c1.4,0,2.5,0.2,3.5,0.5c1,0.3,1.7,0.8,2.3,1.5
		c0.6,0.7,1,1.5,1.3,2.4c0.3,1,0.4,2,0.4,3.3v11.3h-4.1v-2.2c-0.5,0.7-1.2,1.3-2.2,1.7c-1,0.4-2.1,0.7-3.3,0.7
		c-1.7,0-3.1-0.5-4.2-1.5c-1.1-1-1.6-2.4-1.6-4.2c0-1,0.2-1.9,0.5-2.7c0.4-0.8,0.8-1.4,1.4-1.9c0.6-0.5,1.3-0.9,2.2-1.1
		c0.8-0.2,1.7-0.4,2.6-0.4c0.8,0,1.6,0.1,2.4,0.4c0.8,0.2,1.4,0.5,1.8,0.8c0.1-1.6-0.2-2.8-0.6-3.6c-0.5-0.8-1.4-1.2-2.8-1.2
		c-1.1,0-2,0.1-2.7,0.4c-0.7,0.3-1.5,0.6-2.2,0.9L98.1,41.9z M104,55.4c1,0,1.8-0.2,2.3-0.5c0.6-0.4,1-0.7,1.3-1.2v-1.9
		c-0.8-0.6-1.9-0.9-3.3-0.9c-0.8,0-1.5,0.2-2.1,0.6c-0.6,0.4-0.9,1-0.9,1.8c0,0.7,0.3,1.3,0.8,1.6C102.6,55.3,103.3,55.4,104,55.4z"
		/>
	<path class="st1" d="M142.5,56.4c-0.5,0.5-1,0.9-1.7,1.3c-0.7,0.4-1.4,0.7-2.2,1c-0.8,0.3-1.7,0.5-2.6,0.7
		c-0.9,0.2-1.8,0.2-2.8,0.2c-2.2,0-4.2-0.4-6.1-1.1c-1.8-0.7-3.4-1.7-4.7-3c-1.3-1.3-2.3-2.9-3.1-4.7c-0.7-1.8-1.1-3.9-1.1-6.1
		c0-2.1,0.3-4,1-5.8c0.6-1.8,1.6-3.4,2.9-4.8c1.3-1.4,2.8-2.4,4.6-3.2c1.8-0.8,4-1.2,6.4-1.2c1.9,0,3.6,0.3,5.1,0.8
		c1.5,0.5,2.7,1.2,3.7,2.1l-2.3,3.8c-0.9-0.6-1.8-1-2.8-1.4c-1-0.4-2.2-0.5-3.7-0.5c-1.4,0-2.6,0.2-3.7,0.7c-1.1,0.5-2.1,1.1-3,2
		c-0.8,0.9-1.5,2-2,3.2c-0.5,1.3-0.7,2.7-0.7,4.2c0,1.5,0.2,2.9,0.7,4.1c0.5,1.2,1.2,2.3,2,3.2c0.9,0.9,1.9,1.6,3.2,2.1
		c1.2,0.5,2.6,0.7,4.1,0.7c1.2,0,2.4-0.2,3.6-0.6c1.2-0.4,2.3-1,3.2-1.7L142.5,56.4z"/>
	<path class="st2" d="M148.3,59.2V40.6h4.8v11.8l8.7-11.8h4.8v18.6h-4.8V47.4L153,59.2H148.3z"/>
	<path class="st4" d="M172,40.6h17v4.8h-6.1v13.9h-4.8V45.4H172V40.6z"/>
	<path class="st5" d="M194.5,59.2V40.6h4.8v11.8l8.7-11.8h4.8v18.6H208V47.4l-8.7,11.8H194.5z"/>
	<g>
		<rect x="5.4" y="5.3" class="st3" width="4.9" height="4.9"/>
		<rect x="12.4" y="5.3" class="st3" width="4.9" height="4.9"/>
		<rect x="19.5" y="5.3" class="st3" width="4.9" height="4.9"/>
		<rect x="5.4" y="12.3" class="st3" width="4.9" height="4.9"/>
		<rect x="12.4" y="12.3" class="st3" width="4.9" height="4.9"/>
		<rect x="19.5" y="12.3" class="st3" width="4.9" height="4.9"/>
	</g>
	<g>
		<g>
			<rect x="116.9" y="5.4" class="st4" width="4.9" height="4.9"/>
			<rect x="123.9" y="5.4" class="st4" width="4.9" height="4.9"/>
			<rect x="130.9" y="5.4" class="st4" width="4.9" height="4.9"/>
			<rect x="116.9" y="12.4" class="st4" width="4.9" height="4.9"/>
			<rect x="123.9" y="12.4" class="st4" width="4.9" height="4.9"/>
			<rect x="130.9" y="12.4" class="st4" width="4.9" height="4.9"/>
			<rect x="137.8" y="5.4" class="st4" width="4.9" height="4.9"/>
			<rect x="137.8" y="12.4" class="st4" width="4.9" height="4.9"/>
		</g>
		<g>
			<rect x="116.9" y="19.4" class="st4" width="4.9" height="4.9"/>
			<rect x="123.9" y="19.4" class="st4" width="4.9" height="4.9"/>
			<rect x="130.9" y="19.4" class="st4" width="4.9" height="4.9"/>
			<rect x="137.8" y="19.4" class="st4" width="4.9" height="4.9"/>
		</g>
	</g>
	<g>
		<rect x="55.8" y="19.4" class="st1" width="4.9" height="4.9"/>
		<rect x="62.9" y="19.4" class="st1" width="4.9" height="4.9"/>
		<rect x="70" y="19.4" class="st1" width="4.9" height="4.9"/>
		<rect x="55.8" y="26.3" class="st1" width="4.9" height="4.9"/>
		<rect x="62.9" y="26.3" class="st1" width="4.9" height="4.9"/>
		<rect x="70" y="26.3" class="st1" width="4.9" height="4.9"/>
	</g>
	<g>
		<rect x="30.5" y="12.4" class="st2" width="4.9" height="4.9"/>
		<rect x="37.6" y="12.4" class="st2" width="4.9" height="4.9"/>
		<rect x="44.7" y="12.4" class="st2" width="4.9" height="4.9"/>
		<rect x="30.5" y="19.3" class="st2" width="4.9" height="4.9"/>
		<rect x="37.6" y="19.3" class="st2" width="4.9" height="4.9"/>
		<rect x="44.7" y="19.3" class="st2" width="4.9" height="4.9"/>
	</g>
	<g>
		<rect x="80" y="12.3" class="st5" width="4.9" height="4.9"/>
		<rect x="87" y="12.3" class="st5" width="4.9" height="4.9"/>
		<rect x="80" y="19.3" class="st5" width="4.9" height="4.9"/>
		<rect x="87" y="19.3" class="st5" width="4.9" height="4.9"/>
	</g>
	<g>
		<rect x="98.4" y="26.3" class="st2" width="4.9" height="4.9"/>
		<rect x="105.4" y="26.3" class="st2" width="4.9" height="4.9"/>
	</g>
	<g>
		<rect x="147.8" y="19.4" class="st1" width="4.9" height="4.9"/>
		<rect x="154.9" y="19.4" class="st1" width="4.9" height="4.9"/>
		<rect x="162" y="19.4" class="st1" width="4.9" height="4.9"/>
		<rect x="147.8" y="26.4" class="st1" width="4.9" height="4.9"/>
		<rect x="154.9" y="26.4" class="st1" width="4.9" height="4.9"/>
		<rect x="162" y="26.4" class="st1" width="4.9" height="4.9"/>
	</g>
	<g>
		<rect x="193.8" y="26.4" class="st2" width="4.9" height="4.9"/>
		<rect x="200.9" y="26.4" class="st2" width="4.9" height="4.9"/>
		<rect x="207.9" y="26.4" class="st2" width="4.9" height="4.9"/>
	</g>
	<g>
		<rect x="170.9" y="12.4" class="st5" width="4.9" height="4.9"/>
		<rect x="178" y="12.4" class="st5" width="4.9" height="4.9"/>
		<rect x="185.1" y="12.4" class="st5" width="4.9" height="4.9"/>
		<rect x="170.9" y="19.4" class="st5" width="4.9" height="4.9"/>
		<rect x="178" y="19.4" class="st5" width="4.9" height="4.9"/>
		<rect x="185.1" y="19.4" class="st5" width="4.9" height="4.9"/>
	</g>
</g>
</svg>
