<?xml version="1.0" encoding="utf-8"?>
<!-- Generator: Adobe Illustrator 25.3.1, SVG Export Plug-In . SVG Version: 6.00 Build 0)  -->
<svg version="1.1" id="Layer_1" xmlns="http://www.w3.org/2000/svg" xmlns:xlink="http://www.w3.org/1999/xlink" x="0px" y="0px"
	 viewBox="0 0 218 66.2" style="enable-background:new 0 0 218 66.2;" xml:space="preserve">
<style type="text/css">
	.st0{fill:#FFFFFF;}
</style>
<g>
	<path class="st0" d="M17.7,47.7c-0.9-0.6-2.1-0.9-3.7-0.9h-3.6v7.7c0.4,0.1,0.8,0.1,1.4,0.1c0.6,0,1.2,0.1,1.9,0.1
		c1.7,0,3.1-0.4,4-1.1c0.9-0.7,1.3-1.7,1.3-3.1C19,49.2,18.6,48.3,17.7,47.7z"/>
	<path class="st0" d="M43.7,46c-0.5-0.5-1-0.8-1.6-1.1c-0.6-0.3-1.3-0.4-2-0.4c-0.7,0-1.4,0.1-2,0.4c-0.6,0.2-1.1,0.6-1.6,1.1
		c-0.5,0.5-0.8,1-1.1,1.7c-0.3,0.7-0.4,1.4-0.4,2.2c0,1.6,0.5,2.9,1.4,3.9c1,1,2.2,1.5,3.6,1.5c1.5,0,2.7-0.5,3.7-1.5
		c1-1,1.4-2.3,1.4-3.9c0-0.8-0.1-1.5-0.4-2.2C44.5,47.1,44.1,46.5,43.7,46z"/>
	<path class="st0" d="M102.3,51.5c-0.6,0.4-0.9,1-0.9,1.8c0,0.7,0.3,1.3,0.8,1.6c0.5,0.4,1.1,0.6,1.9,0.6c1,0,1.8-0.2,2.3-0.5
		c0.6-0.4,1-0.7,1.3-1.2v-1.9c-0.8-0.6-1.9-0.9-3.3-0.9C103.5,50.9,102.8,51.1,102.3,51.5z"/>
	<path class="st0" d="M16.9,41.4c0.8-0.6,1.3-1.6,1.3-2.9c0-1.2-0.4-2.1-1.2-2.7c-0.8-0.6-1.9-0.9-3.3-0.9c-1.2,0-2.3,0-3.2,0.1v7.3
		h3.4C15,42.3,16,42,16.9,41.4z"/>
	<path class="st0" d="M192.1,21.1V7h-23.3v7.1h-23V0h-31.9v21H95V7H77.3v7H53.5V7h-25V0H0v66.2h218V21.1H192.1z M12.4,5.3h4.9v4.9
		h-4.9V5.3z M12.4,12.3h4.9v4.9h-4.9V12.3z M5.4,5.3h4.9v4.9H5.4V5.3z M5.4,12.3h4.9v4.9H5.4V12.3z M23.3,54.6
		c-0.6,1.1-1.3,2-2.3,2.7c-1,0.7-2.1,1.2-3.4,1.6c-1.3,0.3-2.7,0.5-4.3,0.5c-0.7,0-1.4,0-2.1,0c-0.8,0-1.5,0-2.3,0
		c-0.7,0-1.4,0-2.1-0.1c-0.6,0-1.2-0.1-1.6-0.1V30.3c0.4,0,0.9,0,1.6-0.1c0.6,0,1.4,0,2.1-0.1c0.8,0,1.5,0,2.4-0.1
		c0.8,0,1.6,0,2.3,0c1.7,0,3.2,0.2,4.4,0.6c1.2,0.4,2.2,0.9,2.9,1.5c0.8,0.6,1.3,1.4,1.7,2.3c0.3,0.9,0.5,1.8,0.5,2.8
		c0,1.7-0.4,3-1.1,4.1c-0.8,1.1-1.8,1.9-3,2.5v0.1c1.4,0.4,2.6,1.1,3.6,2.2c1,1.1,1.5,2.6,1.5,4.6C24.1,52.2,23.8,53.5,23.3,54.6z
		 M24.4,17.2h-4.9v-4.9h4.9V17.2z M24.4,10.2h-4.9V5.3h4.9V10.2z M44.7,12.4h4.9v4.9h-4.9V12.4z M44.7,19.3h4.9v4.9h-4.9V19.3z
		 M37.6,12.4h4.9v4.9h-4.9V12.4z M37.6,19.3h4.9v4.9h-4.9V19.3z M30.5,12.4h4.9v4.9h-4.9V12.4z M30.5,19.3h4.9v4.9h-4.9V19.3z
		 M49.5,53.8c-0.5,1.2-1.2,2.2-2,3.1c-0.9,0.9-1.9,1.6-3.2,2c-1.2,0.5-2.6,0.7-4.2,0.7c-1.5,0-2.9-0.2-4.2-0.7
		c-1.2-0.5-2.3-1.2-3.2-2c-0.9-0.9-1.6-1.9-2-3.1c-0.5-1.2-0.7-2.5-0.7-3.9s0.2-2.7,0.7-3.9c0.5-1.2,1.2-2.2,2-3.1
		c0.9-0.9,1.9-1.6,3.2-2c1.2-0.5,2.6-0.7,4.2-0.7c1.5,0,2.9,0.2,4.2,0.7c1.2,0.5,2.3,1.2,3.2,2c0.9,0.9,1.6,1.9,2,3.1
		c0.5,1.2,0.7,2.5,0.7,3.9S49.9,52.6,49.5,53.8z M62.9,19.4h4.9v4.9h-4.9V19.4z M62.9,26.3h4.9v4.9h-4.9V26.3z M55.8,19.4h4.9v4.9
		h-4.9V19.4z M55.8,26.3h4.9v4.9h-4.9V26.3z M72.8,59.2h-4.8V45.4h-4.9l-0.1,2c-0.2,2.5-0.6,4.6-1,6.2c-0.4,1.6-1,2.8-1.7,3.7
		c-0.7,0.9-1.5,1.5-2.4,1.8c-1,0.3-2,0.5-3.3,0.5L54.2,55c0.4,0.1,0.8,0,1.3-0.2c0.4-0.2,0.9-0.6,1.3-1.3c0.4-0.6,0.8-1.5,1.1-2.6
		c0.3-1.1,0.5-2.6,0.6-4.4l0.3-5.8h14.1V59.2z M74.9,31.3H70v-4.9h4.9V31.3z M74.9,24.3H70v-4.9h4.9V24.3z M87,12.3h4.9v4.9H87V12.3
		z M87,19.3h4.9v4.9H87V19.3z M80,12.3h4.9v4.9H80V12.3z M80,19.3h4.9v4.9H80V19.3z M92.7,45H85v14.2h-4.8V40.6h12.5V45z
		 M105.4,26.3h4.9v4.9h-4.9V26.3z M98.4,26.3h4.9v4.9h-4.9V26.3z M112.1,59.2h-4.1v-2.2c-0.5,0.7-1.2,1.3-2.2,1.7
		c-1,0.4-2.1,0.7-3.3,0.7c-1.7,0-3.1-0.5-4.2-1.5c-1.1-1-1.6-2.4-1.6-4.2c0-1,0.2-1.9,0.5-2.7c0.4-0.8,0.8-1.4,1.4-1.9
		c0.6-0.5,1.3-0.9,2.2-1.1c0.8-0.2,1.7-0.4,2.6-0.4c0.8,0,1.6,0.1,2.4,0.4c0.8,0.2,1.4,0.5,1.8,0.8c0.1-1.6-0.2-2.8-0.6-3.6
		c-0.5-0.8-1.4-1.2-2.8-1.2c-1.1,0-2,0.1-2.7,0.4c-0.7,0.3-1.5,0.6-2.2,0.9l-1.2-3.5c0.8-0.5,1.8-0.9,3-1.2c1.2-0.4,2.4-0.5,3.6-0.5
		c1.4,0,2.5,0.2,3.5,0.5c1,0.3,1.7,0.8,2.3,1.5c0.6,0.7,1,1.5,1.3,2.4c0.3,1,0.4,2,0.4,3.3V59.2z M130.9,5.4h4.9v4.9h-4.9V5.4z
		 M130.9,12.4h4.9v4.9h-4.9V12.4z M130.9,19.4h4.9v4.9h-4.9V19.4z M123.9,5.4h4.9v4.9h-4.9V5.4z M123.9,12.4h4.9v4.9h-4.9V12.4z
		 M123.9,19.4h4.9v4.9h-4.9V19.4z M116.9,5.4h4.9v4.9h-4.9V5.4z M116.9,12.4h4.9v4.9h-4.9V12.4z M116.9,19.4h4.9v4.9h-4.9V19.4z
		 M140.8,57.7c-0.7,0.4-1.4,0.7-2.2,1c-0.8,0.3-1.7,0.5-2.6,0.7c-0.9,0.2-1.8,0.2-2.8,0.2c-2.2,0-4.2-0.4-6.1-1.1
		c-1.8-0.7-3.4-1.7-4.7-3c-1.3-1.3-2.3-2.9-3.1-4.7c-0.7-1.8-1.1-3.9-1.1-6.1c0-2.1,0.3-4,1-5.8c0.6-1.8,1.6-3.4,2.9-4.8
		c1.3-1.4,2.8-2.4,4.6-3.2c1.8-0.8,4-1.2,6.4-1.2c1.9,0,3.6,0.3,5.1,0.8c1.5,0.5,2.7,1.2,3.7,2.1l-2.3,3.8c-0.9-0.6-1.8-1-2.8-1.4
		c-1-0.4-2.2-0.5-3.7-0.5c-1.4,0-2.6,0.2-3.7,0.7c-1.1,0.5-2.1,1.1-3,2c-0.8,0.9-1.5,2-2,3.2c-0.5,1.3-0.7,2.7-0.7,4.2
		c0,1.5,0.2,2.9,0.7,4.1c0.5,1.2,1.2,2.3,2,3.2c0.9,0.9,1.9,1.6,3.2,2.1c1.2,0.5,2.6,0.7,4.1,0.7c1.2,0,2.4-0.2,3.6-0.6
		c1.2-0.4,2.3-1,3.2-1.7l1.9,3.8C142,56.9,141.5,57.3,140.8,57.7z M142.8,24.3h-4.9v-4.9h4.9V24.3z M142.8,17.3h-4.9v-4.9h4.9V17.3z
		 M142.8,10.3h-4.9V5.4h4.9V10.3z M154.9,19.4h4.9v4.9h-4.9V19.4z M154.9,26.4h4.9v4.9h-4.9V26.4z M147.8,19.4h4.9v4.9h-4.9V19.4z
		 M147.8,26.4h4.9v4.9h-4.9V26.4z M166.5,59.2h-4.8V47.4L153,59.2h-4.8V40.6h4.8v11.8l8.7-11.8h4.8V59.2z M166.9,31.3H162v-4.9h4.9
		V31.3z M166.9,24.3H162v-4.9h4.9V24.3z M178,12.4h4.9v4.9H178V12.4z M178,19.4h4.9v4.9H178V19.4z M170.9,12.4h4.9v4.9h-4.9V12.4z
		 M170.9,19.4h4.9v4.9h-4.9V19.4z M188.9,45.4h-6.1v13.9h-4.8V45.4H172v-4.8h17V45.4z M190,24.3h-4.9v-4.9h4.9V24.3z M190,17.3h-4.9
		v-4.9h4.9V17.3z M200.9,26.4h4.9v4.9h-4.9V26.4z M193.8,26.4h4.9v4.9h-4.9V26.4z M212.8,59.2H208V47.4l-8.7,11.8h-4.8V40.6h4.8
		v11.8l8.7-11.8h4.8V59.2z M212.9,31.3h-4.9v-4.9h4.9V31.3z"/>
</g>
</svg>
