<?xml version="1.0" encoding="utf-8"?>
<!-- Generator: Adobe Illustrator 25.3.1, SVG Export Plug-In . SVG Version: 6.00 Build 0)  -->
<svg version="1.1" id="Layer_1" xmlns="http://www.w3.org/2000/svg" xmlns:xlink="http://www.w3.org/1999/xlink" x="0px" y="0px"
	 viewBox="0 0 55 55" style="enable-background:new 0 0 55 55;" xml:space="preserve">
<style type="text/css">
	.st0{fill:#FFFFFF;}
</style>
<g>
	<path class="st0" d="M11.9,9.4c0-2.6,2.1-4.7,4.7-4.7s4.7,2.1,4.7,4.7v4.8h3.1V9.4c0-4.3-3.5-7.8-7.8-7.8S8.7,5.1,8.7,9.4v4.8h3.1
		V9.4z M11.9,9.4"/>
	<path class="st0" d="M19.7,26.7h12.5V14.2h-7.8v6.3h-3.1v-6.3h-9.4v6.3H8.7v-6.3H0.8V55h18.9V26.7z M19.7,26.7"/>
	<path class="st0" d="M22.8,55h31.4V29.9H22.8V55z M30.6,34.6h3.1v1.6c0,2.6,2.1,4.7,4.7,4.7c2.6,0,4.7-2.1,4.7-4.7v-1.6h3.1v1.6
		c0,4.3-3.5,7.8-7.8,7.8s-7.8-3.5-7.8-7.8V34.6z M30.6,34.6"/>
</g>
</svg>
