<?xml version="1.0" encoding="utf-8"?>
<!-- Generator: Adobe Illustrator 25.3.1, SVG Export Plug-In . SVG Version: 6.00 Build 0)  -->
<svg version="1.1" id="Layer_1" xmlns="http://www.w3.org/2000/svg" xmlns:xlink="http://www.w3.org/1999/xlink" x="0px" y="0px"
	 viewBox="0 0 55 55" style="enable-background:new 0 0 55 55;" xml:space="preserve">
<style type="text/css">
	.st0{fill:#FFFFFF;}
</style>
<g>
	<path class="st0" d="M50.1,13.3h-2V9.8c0-3.8-3.1-6.8-6.8-6.8H13.7C9.9,3,6.9,6.1,6.9,9.8v3.5h-2c-0.8,0-1.4,0.6-1.4,1.4v7.9
		c0,0.8,0.6,1.4,1.4,1.4h2v17c-0.8,0.7-1.2,1.7-1.2,2.8v2.6c0,2.1,1.7,3.7,3.7,3.7h0.5v3.7c0,0.6,0.5,1.1,1.1,1.1h5
		c0.6,0,1.1-0.5,1.1-1.1v-3.7h20.9v3.7c0,0.6,0.5,1.1,1.1,1.1h5c0.6,0,1.1-0.5,1.1-1.1v-3.7h0.5c2.1,0,3.7-1.7,3.7-3.7v-2.6
		c0-1.1-0.5-2.1-1.2-2.8V24h2c0.8,0,1.4-0.6,1.4-1.4v-7.9C51.5,14,50.9,13.3,50.1,13.3L50.1,13.3z M43.9,13.9v16.8H29.4V13.9H43.9z
		 M20.3,6.6h14.5c1,0,1.8,0.8,1.8,1.8c0,1-0.8,1.8-1.8,1.8H20.3c-1,0-1.8-0.8-1.8-1.8C18.4,7.4,19.2,6.6,20.3,6.6L20.3,6.6z
		 M11.1,13.9h14.5v16.8H11.1V13.9z M17.6,38.2c0,1-0.8,1.8-1.8,1.8h-3c-1,0-1.8-0.8-1.8-1.8v-2c0-1,0.8-1.8,1.8-1.8h3
		c1,0,1.8,0.8,1.8,1.8V38.2z M37.4,38.2v-2c0-1,0.8-1.8,1.8-1.8h3c1,0,1.8,0.8,1.8,1.8v2c0,1-0.8,1.8-1.8,1.8h-3
		C38.2,40,37.4,39.2,37.4,38.2L37.4,38.2z M37.4,38.2"/>
</g>
</svg>
