<?xml version="1.0" encoding="utf-8"?>
<!-- Generator: Adobe Illustrator 25.3.1, SVG Export Plug-In . SVG Version: 6.00 Build 0)  -->
<svg version="1.1" id="Layer_1" xmlns="http://www.w3.org/2000/svg" xmlns:xlink="http://www.w3.org/1999/xlink" x="0px" y="0px"
	 viewBox="0 0 55 55" style="enable-background:new 0 0 55 55;" xml:space="preserve">
<style type="text/css">
	.st0{fill:#FFFFFF;}
</style>
<g>
	<path class="st0" d="M40.1,20.4l1.2-2.4c-1.9-2.8-5.1-4.6-8.6-4.6c-2.2,0-4.4,0.7-6.1,2l2.3,4.9H40.1z M40.1,20.4"/>
	<path class="st0" d="M35.7,28.8l2.8-5.4H16.4l2.8,5.4c0.3,0.6,0.5,1.3,0.6,2h15.3C35.2,30.1,35.4,29.4,35.7,28.8L35.7,28.8z
		 M35.7,28.8"/>
	<path class="st0" d="M7.9,30.8l-3.7-7.2C2.3,24.1,1,25.8,1,27.7v3.1H7.9z M7.9,30.8"/>
	<path class="st0" d="M45.5,33.9c-1.1,2-3.2,3.1-5.4,2.9c-0.7-0.1-1.3-0.3-2-0.6c-1-0.5-1.8-1.4-2.3-2.3H19.2
		c-0.5,1-1.3,1.8-2.3,2.3c-0.6,0.3-1.3,0.5-2,0.6c-2.2,0.2-4.4-0.9-5.4-2.9H4.3L7.4,55h40.2l3.1-21.1H45.5z M15.7,50.8h-3.1V40.1
		h3.1V50.8z M22.4,50.8h-3.1V40.1h3.1V50.8z M29,50.8h-3.1V40.1H29V50.8z M35.7,50.8h-3.1V40.1h3.1V50.8z M42.3,50.8h-3.1V40.1h3.1
		V50.8z M42.3,50.8"/>
	<path class="st0" d="M47.1,30.8H54v-3.1c0-2-1.3-3.7-3.2-4.2L47.1,30.8z M47.1,30.8"/>
	<path class="st0" d="M12.1,32.5c0.6,1.2,2.1,1.7,3.4,1.1c1.2-0.6,1.7-2.1,1.1-3.4L5.4,8.7L1,11L12.1,32.5z M12.1,32.5"/>
	<path class="st0" d="M38.4,30.2c-0.6,1.2-0.2,2.7,1.1,3.4c1.2,0.6,2.7,0.2,3.4-1.1L54,11l-4.4-2.3L38.4,30.2z M38.4,30.2"/>
	<path class="st0" d="M14.2,8.8v6.5l-1,2l1.6,3.1h10.7l-2.7-5.8V8.8H14.2z M14.2,8.8"/>
	<rect x="14.2" y="2" class="st0" width="8.7" height="3.7"/>
</g>
</svg>
