<?xml version="1.0" encoding="utf-8"?>
<!-- Generator: Adobe Illustrator 25.3.1, SVG Export Plug-In . SVG Version: 6.00 Build 0)  -->
<svg version="1.1" id="Layer_1" xmlns="http://www.w3.org/2000/svg" xmlns:xlink="http://www.w3.org/1999/xlink" x="0px" y="0px"
	 viewBox="0 0 55 55" style="enable-background:new 0 0 55 55;" xml:space="preserve">
<style type="text/css">
	.st0{fill:#FFFFFF;}
</style>
<g>
	<path class="st0" d="M27.5,17.8H22v11.1h5.5c3,0,5.5-2.5,5.5-5.5C33,20.3,30.5,17.8,27.5,17.8L27.5,17.8z M27.5,17.8"/>
	<path class="st0" d="M42.1,10.9H12.9c-1.1,0-2,0.9-2,2v29.1c0,1.1,0.9,2,2,2h29.1c1.1,0,2-0.9,2-2V12.9
		C44.1,11.8,43.2,10.9,42.1,10.9L42.1,10.9z M27.5,31.6H22v8.3h-2.8V15.1h8.3c4.6,0,8.3,3.7,8.3,8.3C35.8,27.9,32.1,31.6,27.5,31.6
		L27.5,31.6z M27.5,31.6"/>
	<path class="st0" d="M43.4,4H11.6C7.4,4,4,7.4,4,11.6v31.7c0,4.2,3.4,7.6,7.6,7.6h31.7c4.2,0,7.6-3.4,7.6-7.6V11.6
		C51,7.4,47.6,4,43.4,4L43.4,4z M46.9,42.1c0,2.6-2.1,4.8-4.8,4.8H12.9c-2.6,0-4.8-2.1-4.8-4.8V12.9c0-2.6,2.1-4.8,4.8-4.8h29.1
		c2.6,0,4.8,2.1,4.8,4.8V42.1z M46.9,42.1"/>
</g>
</svg>
