<?xml version="1.0" encoding="utf-8"?>
<!-- Generator: Adobe Illustrator 25.3.1, SVG Export Plug-In . SVG Version: 6.00 Build 0)  -->
<svg version="1.1" id="Layer_1" xmlns="http://www.w3.org/2000/svg" xmlns:xlink="http://www.w3.org/1999/xlink" x="0px" y="0px"
	 viewBox="0 0 55 55" style="enable-background:new 0 0 55 55;" xml:space="preserve">
<style type="text/css">
	.st0{fill:#FFFFFF;}
</style>
<g>
	<path class="st0" d="M3.3,19.9L3.1,5.4C3.1,4.6,3.7,4,4.4,4L19,4.2c1.2,0,1.7,1.4,0.9,2.2l-4,4l6.7,6.7l-6.2,6.2l-6.7-6.7l-4,4
		C4.7,21.7,3.3,21.1,3.3,19.9L3.3,19.9z M3.3,19.9"/>
	<path class="st0" d="M43.6,16.9l4,4c0.8,0.8,2.2,0.2,2.2-0.9l0.2-14.5c0-0.7-0.6-1.3-1.3-1.3L34.2,4.3c-1.2,0-1.7,1.4-0.9,2.2l4,4
		l-6.7,6.7l6.2,6.2L43.6,16.9z M43.6,16.9"/>
	<path class="st0" d="M33.3,48c-0.8,0.8-0.2,2.2,0.9,2.2l14.5,0.2c0.7,0,1.3-0.6,1.3-1.3l-0.2-14.5c0-1.2-1.4-1.7-2.2-0.9l-4,4
		L36.8,31l-6.2,6.2l6.7,6.7L33.3,48z M33.3,48"/>
	<path class="st0" d="M4.4,50.4L19,50.2c1.2,0,1.7-1.4,0.9-2.2l-4-4l6.7-6.7l-6.2-6.2l-6.7,6.7l-4-4c-0.8-0.8-2.2-0.3-2.2,0.9
		L3.1,49C3.1,49.8,3.7,50.4,4.4,50.4L4.4,50.4z M4.4,50.4"/>
</g>
</svg>
